<?xml version="1.0" encoding="UTF-8"?>
<svg width="41px" height="33px" viewBox="0 0 41 33" version="1.1" xmlns="http://www.w3.org/2000/svg" xmlns:xlink="http://www.w3.org/1999/xlink">
    <!-- Generator: Sketch 52.6 (67491) - http://www.bohemiancoding.com/sketch -->
    <title>mc_vrt_pos</title>
    <desc>Created with Sketch.</desc>
    <g id="pages" stroke="none" stroke-width="1" fill="none" fill-rule="evenodd">
        <g id="home_strahovka" transform="translate(-1171.000000, -3510.000000)" fill-rule="nonzero">
            <g id="footer" transform="translate(-70.000000, 2712.000000)">
                <g id="лого-платежных-систем" transform="translate(1129.000000, 796.000000)">
                    <g id="mc_vrt_pos" transform="translate(112.000000, 2.000000)">
                        <path d="M7.4114724,32.8201438 L7.4114724,30.6618705 C7.43672359,30.2946745 7.3039611,29.9342839 7.04705511,29.672641 C6.79014912,29.4109981 6.43394353,29.2734049 6.06931302,29.294964 C5.58878931,29.2632186 5.12920516,29.4975409 4.86993655,29.9064748 C4.63355798,29.5097336 4.200741,29.2750919 3.74195154,29.294964 C3.34248685,29.274614 2.96220033,29.4689621 2.74247115,29.8057554 L2.74247115,29.3812949 L2,29.3812949 L2,32.8201438 L2.74961029,32.8201438 L2.74961029,30.9280575 C2.71732649,30.6899605 2.79218732,30.4497687 2.95376389,30.2730286 C3.11534045,30.0962885 3.34676742,30.001448 3.58489033,30.0143885 C4.07749138,30.0143885 4.32736148,30.3381295 4.32736148,30.9208633 L4.32736148,32.8345323 L5.07697177,32.8345323 L5.07697177,30.9280575 C5.04601272,30.6902312 5.12133129,30.4508178 5.28260828,30.2744053 C5.44388528,30.0979928 5.67450509,30.0027564 5.91225181,30.0143885 C6.41913116,30.0143885 6.66186211,30.3381295 6.66186211,30.9208633 L6.66186211,32.8345323 L7.4114724,32.8201438 Z M18.5021352,29.3812949 L17.2813413,29.3812949 L17.2813413,28.3381295 L16.531731,28.3381295 L16.531731,29.3812949 L15.8535121,29.3812949 L15.8535121,30.0647482 L16.5460093,30.0647482 L16.5460093,31.647482 C16.5460093,32.4460431 16.8529925,32.9208633 17.7311074,32.9208633 C18.0591721,32.9219738 18.3808795,32.8297042 18.6591964,32.6546762 L18.445022,32.0143884 C18.2459124,32.1340682 18.0199326,32.2009002 17.7882206,32.208633 C17.4312633,32.208633 17.2956195,31.9784172 17.2956195,31.6330935 L17.2956195,30.0647482 L18.5092743,30.0647482 L18.5021352,29.3812949 Z M24.8345574,29.294964 C24.465791,29.284035 24.1206367,29.4772673 23.935025,29.7985611 L23.935025,29.3812949 L23.199693,29.3812949 L23.199693,32.8201438 L23.9421641,32.8201438 L23.9421641,30.8920863 C23.9421641,30.323741 24.1848951,30.0071942 24.6560787,30.0071942 C24.8148834,30.0050052 24.9725624,30.0343399 25.1201232,30.0935252 L25.3485758,29.3741007 C25.1790111,29.3129726 25.0003658,29.2813468 24.8202791,29.2805755 L24.8345574,29.294964 Z M15.260963,29.6546762 C14.8406905,29.4028694 14.3574863,29.2780147 13.8688296,29.294964 C13.004993,29.294964 12.4410005,29.7122302 12.4410005,30.3956834 C12.4410005,30.9568345 12.855071,31.3021582 13.6189595,31.4100719 L13.9759168,31.4604316 C14.3828481,31.5179856 14.5756051,31.6258992 14.5756051,31.8201438 C14.5756051,32.0863309 14.3043175,32.23741 13.7974382,32.23741 C13.3897225,32.2493029 12.9898949,32.1226006 12.662314,31.8776978 L12.3053567,32.4604316 C12.7378511,32.7647448 13.2558703,32.9210978 13.7831599,32.9064748 C14.768362,32.9064748 15.3394936,32.4388489 15.3394936,31.7841726 C15.3394936,31.1294964 14.8897275,30.8633093 14.1472563,30.7553957 L13.790299,30.7050359 C13.4690375,30.6618705 13.2120282,30.5971223 13.2120282,30.3669064 C13.2120282,30.1366906 13.4547592,29.9640288 13.8616905,29.9640288 C14.2378077,29.9684317 14.6065161,30.0699898 14.9325623,30.2589928 L15.260963,29.6546762 Z M35.1470532,29.294964 C34.7782869,29.284035 34.4331326,29.4772673 34.2475209,29.7985611 L34.2475209,29.3812949 L33.5121889,29.3812949 L33.5121889,32.8201438 L34.25466,32.8201438 L34.25466,30.8920863 C34.25466,30.323741 34.497391,30.0071942 34.9685746,30.0071942 C35.1273792,30.0050052 35.2850583,30.0343399 35.4326191,30.0935252 L35.6610717,29.3741007 C35.491507,29.3129726 35.3128617,29.2813468 35.132775,29.2805755 L35.1470532,29.294964 Z M25.5805981,31.0935251 C25.5627423,31.5821708 25.7500474,32.0557779 26.0965383,32.3980966 C26.4430292,32.7404153 26.9166256,32.9197516 27.4010802,32.8920863 C27.8468765,32.9149423 28.28499,32.768633 28.6290133,32.4820143 L28.272056,31.8776978 C28.0153933,32.074932 27.7024174,32.1834267 27.3796628,32.1870503 C26.810566,32.1406486 26.3721824,31.661694 26.3721824,31.0863309 C26.3721824,30.5109678 26.810566,30.0320132 27.3796628,29.9856115 C27.7024174,29.9892351 28.0153933,30.0977298 28.272056,30.294964 L28.6290133,29.6906475 C28.28499,29.4040288 27.8468765,29.2577195 27.4010802,29.2805755 C26.9166256,29.2529102 26.4430292,29.4322465 26.0965383,29.7745652 C25.7500474,30.1168839 25.5627423,30.590491 25.5805981,31.0791367 L25.5805981,31.0935251 Z M32.5341259,31.0935251 L32.5341259,29.3812949 L31.7916548,29.3812949 L31.7916548,29.7985611 C31.5358604,29.4668885 31.1373436,29.2794787 30.7207829,29.294964 C29.7350726,29.294964 28.9359965,30.1002073 28.9359965,31.0935251 C28.9359965,32.086843 29.7350726,32.8920863 30.7207829,32.8920863 C31.1373436,32.9075716 31.5358604,32.7201618 31.7916548,32.3884892 L31.7916548,32.8057553 L32.5341259,32.8057553 L32.5341259,31.0935251 Z M29.7712766,31.0935251 C29.8042933,30.5290175 30.2790276,30.0946433 30.8397891,30.1158534 C31.4005507,30.1370635 31.8416367,30.6060774 31.8325678,31.1714909 C31.8234988,31.7369044 31.3676015,32.1913082 30.8064527,32.1942446 C30.5207223,32.1978878 30.2464668,32.0811071 30.0499039,31.8720987 C29.8533411,31.6630903 29.7523362,31.3808505 29.7712766,31.0935251 Z M20.8116488,29.294964 C19.8259385,29.3088705 19.0380494,30.1253871 19.0518494,31.118705 C19.0656493,32.1120229 19.8759125,32.9059927 20.8616228,32.8920863 C21.3751913,32.9186506 21.880238,32.7519937 22.2787432,32.4244604 L21.9217859,31.8705036 C21.6399189,32.0983016 21.2907218,32.2248815 20.9294447,32.2302158 C20.4191265,32.2744424 19.9665811,31.9013203 19.9085469,31.3884892 L22.4429436,31.3884892 C22.4429436,31.294964 22.4429436,31.2014388 22.4429436,31.1007194 C22.4429436,30.0215827 21.779003,29.3021583 20.8223575,29.3021583 L20.8116488,29.294964 Z M20.8116488,29.9640288 C21.0360332,29.959208 21.2531228,30.0444351 21.4151347,30.200951 C21.5771465,30.3574669 21.6708015,30.5724428 21.6754854,30.7985611 L19.890699,30.7985611 C19.917588,30.3182818 20.3202893,29.9476213 20.7973705,29.9640288 L20.8116488,29.9640288 Z M39.4126928,31.1007194 L39.4126928,28 L38.6987782,28 L38.6987782,29.7985611 C38.4429838,29.4668885 38.044467,29.2794787 37.6279064,29.294964 C36.642196,29.294964 35.8431199,30.1002073 35.8431199,31.0935251 C35.8431199,32.086843 36.642196,32.8920863 37.6279064,32.8920863 C38.044467,32.9075716 38.4429838,32.7201618 38.6987782,32.3884892 L38.6987782,32.8057553 L39.4126928,32.8057553 L39.4126928,31.1007194 Z M40.6513345,32.3201438 C40.6977436,32.3195709 40.7438181,32.3281238 40.7869783,32.3453237 C40.8279723,32.3621813 40.8654963,32.3865771 40.8976351,32.4172661 C40.9290006,32.448281 40.9544136,32.4848655 40.9725961,32.5251798 C41.0091346,32.6100889 41.0091346,32.7064578 40.9725961,32.7913669 C40.9544136,32.8316811 40.9290006,32.8682656 40.8976351,32.8992805 C40.8654963,32.9299695 40.8279723,32.9543654 40.7869783,32.971223 C40.7442442,32.9902249 40.6980439,33.0000263 40.6513345,32.9999999 C40.5132098,32.9989508 40.3880831,32.9176912 40.330073,32.7913669 C40.2939575,32.7063698 40.2939575,32.6101768 40.330073,32.5251798 C40.3482554,32.4848655 40.3736685,32.448281 40.405034,32.4172661 C40.4371728,32.3865771 40.4746968,32.3621813 40.5156908,32.3453237 C40.5621844,32.3266864 40.612047,32.3181076 40.6620433,32.3201438 L40.6513345,32.3201438 Z M40.6513345,32.9280575 C40.6869622,32.9282756 40.7222353,32.9209214 40.7548521,32.9064748 C40.7855635,32.8926573 40.8134161,32.873132 40.8369523,32.8489208 C40.9295103,32.7471557 40.9295103,32.5909737 40.8369523,32.4892086 C40.8134722,32.4649306 40.7856061,32.4453958 40.7548521,32.4316546 C40.7222031,32.4173098 40.6869517,32.4099601 40.6513345,32.4100719 C40.6157481,32.4102614 40.5805564,32.4175987 40.5478169,32.4316546 C40.515746,32.4449064 40.4866209,32.464473 40.4621472,32.4892086 C40.3695892,32.5909737 40.3695892,32.7471557 40.4621472,32.8489208 C40.486681,32.8735825 40.5157905,32.8931386 40.5478169,32.9064748 C40.5838303,32.9221251 40.62285,32.9294978 40.6620433,32.9280575 L40.6513345,32.9280575 Z M40.672752,32.5 C40.7060744,32.4983715 40.7389107,32.508553 40.7655609,32.5287769 C40.7877288,32.5472647 40.7996901,32.5753898 40.797687,32.6043165 C40.7987232,32.628473 40.7896592,32.6519604 40.7727,32.6690647 C40.7520101,32.6880021 40.7256161,32.6994011 40.697739,32.7014388 L40.8012566,32.8201438 L40.7191564,32.8201438 L40.622778,32.7014388 L40.5906518,32.7014388 L40.5906518,32.8201438 L40.5228299,32.8201438 L40.5228299,32.5035971 L40.672752,32.5 Z M40.5942214,32.561151 L40.5942214,32.647482 L40.672752,32.647482 C40.6867263,32.6516805 40.7016125,32.6516805 40.7155868,32.647482 C40.7206781,32.6373004 40.7206781,32.6252894 40.7155868,32.6151079 C40.7206781,32.6049263 40.7206781,32.5929153 40.7155868,32.5827338 C40.7016125,32.5785353 40.6867263,32.5785353 40.672752,32.5827338 L40.5942214,32.561151 Z M36.6676913,31.1007194 C36.700708,30.5362117 37.1754423,30.1018375 37.7362038,30.1230477 C38.2969654,30.1442578 38.7380514,30.6132717 38.7289825,31.1786852 C38.7199135,31.7440987 38.2640162,32.1985025 37.7028674,32.2014388 C37.417137,32.2050821 37.1428815,32.0883014 36.9463186,31.8792929 C36.7497558,31.6702845 36.6487509,31.3880448 36.6676913,31.1007194 Z M11.5985813,31.1007194 L11.5985813,29.3812949 L10.8561102,29.3812949 L10.8561102,29.7985611 C10.6003158,29.4668885 10.201799,29.2794787 9.78523833,29.294964 C8.79952801,29.294964 8.00045192,30.1002073 8.00045192,31.0935251 C8.00045192,32.086843 8.79952801,32.8920863 9.78523833,32.8920863 C10.201799,32.9075716 10.6003158,32.7201618 10.8561102,32.3884892 L10.8561102,32.8057553 L11.5985813,32.8057553 L11.5985813,31.1007194 Z M8.83573196,31.1007194 C8.86874872,30.5362117 9.34348295,30.1018375 9.9042445,30.1230477 C10.4650061,30.1442578 10.9060921,30.6132717 10.8970232,31.1786852 C10.8879542,31.7440987 10.4320569,32.1985025 9.87090808,32.2014388 C9.58394637,32.2071159 9.30778151,32.0912255 9.10963552,31.8819768 C8.91148952,31.672728 8.80953639,31.3893133 8.82859281,31.1007194 L8.83573196,31.1007194 Z" id="Shape" fill="#231F20"></path>
                        <g id="_Group_">
                            <rect id="Rectangle-path" fill="#FF5F00" x="14.9457265" y="2.79589041" width="11.0384615" height="20.1624658"></rect>
                            <path d="M15.6465812,12.8789041 C15.6424541,8.94381916 17.4193384,5.22548152 20.4649573,2.79589041 C15.2925761,-1.335598 7.86482931,-0.733810982 3.40173772,4.17833171 C-1.06135387,9.09047441 -1.06135387,16.6637722 3.40173772,21.5759149 C7.86482931,26.4880576 15.2925761,27.0898446 20.4649573,22.9583562 C17.4203073,20.5295364 15.6435315,16.8127392 15.6465812,12.8789041 Z" id="_Path_" fill="#EB001B"></path>
                            <path d="M40.8773504,12.8789041 C40.8772378,17.7880533 38.1192842,22.2662042 33.7748031,24.4114691 C29.430322,26.5567339 24.2620443,25.9924831 20.4649573,22.9583562 C23.5082787,20.5274743 25.2851883,16.8111714 25.2851883,12.8771233 C25.2851883,8.94307522 23.5082787,5.22677223 20.4649573,2.79589041 C24.2620443,-0.238236513 29.430322,-0.802487301 33.7748031,1.34277752 C38.1192842,3.48804234 40.8772378,7.96619329 40.8773504,12.8753425 L40.8773504,12.8789041 Z" id="Shape" fill="#F79E1B"></path>
                            <path d="M39.6718803,20.8213699 L39.6718803,20.4082192 L39.8365812,20.4082192 L39.8365812,20.3227397 L39.4195726,20.3227397 L39.4195726,20.4082192 L39.5982906,20.4082192 L39.5982906,20.8213699 L39.6718803,20.8213699 Z M40.4813675,20.8213699 L40.4813675,20.3227397 L40.3552137,20.3227397 L40.2080342,20.6789041 L40.0608547,20.3227397 L39.9487179,20.3227397 L39.9487179,20.8213699 L40.0398291,20.8213699 L40.0398291,20.4473973 L40.1764957,20.7715068 L40.2711111,20.7715068 L40.4077778,20.4473973 L40.4077778,20.8249315 L40.4813675,20.8213699 Z" id="Shape" fill="#F79E1B"></path>
                        </g>
                    </g>
                </g>
            </g>
        </g>
    </g>
</svg>