<?xml version="1.0" encoding="UTF-8"?>
<svg width="222px" height="26px" viewBox="0 0 222 26" version="1.1" xmlns="http://www.w3.org/2000/svg" xmlns:xlink="http://www.w3.org/1999/xlink">
    <!-- Generator: Sketch 52.6 (67491) - http://www.bohemiancoding.com/sketch -->
    <title>logo</title>
    <desc>Created with Sketch.</desc>
    <defs>
        <polygon id="path-1" points="0.0150753088 0.505751852 16.7464167 0.505751852 16.7464167 18.9174556 0.0150753088 18.9174556"></polygon>
        <polygon id="path-3" points="0 0.0850722008 25.9286152 0.0850722008 25.9286152 6 0 6"></polygon>
    </defs>
    <g id="pages" stroke="none" stroke-width="1" fill="none" fill-rule="evenodd">
        <g id="home_strahovka" transform="translate(-131.000000, -49.000000)">
            <g id="first-screen" transform="translate(-30.000000, 48.000000)">
                <g id="header" transform="translate(161.000000, 0.000000)">
                    <g id="logo" transform="translate(0.000000, 1.000000)">
                        <path d="M35.7287071,0 L23.2712929,0 C22.2548171,0 22,0.313043478 22,1.25011442 L22,3.50045767 C22,4.37505721 22.2548171,4.74988558 23.2712929,4.74988558 L26.767523,4.74988558 L26.767523,16.6874142 C26.767523,17.687643 27.0851717,18 28.1016476,18 L30.8983524,18 C31.8519966,18 32.2331751,17.687643 32.2331751,16.6874142 L32.2331751,4.74988558 L35.7287071,4.74988558 C36.6823513,4.74988558 37,4.37505721 37,3.50045767 L37,1.25011442 C37,0.313043478 36.6823513,0 35.7287071,0" id="Fill-1" fill="#2A2B2D"></path>
                        <path d="M108.363027,9.56365567 C108.363027,12.9836696 106.083333,13.8699791 104.5,13.8699791 C102.915971,13.8699791 100.636277,12.9836696 100.636277,9.56365567 L100.636277,9.31042437 C100.636277,6.01633042 102.915971,5.06671305 104.5,5.06671305 C106.083333,5.06671305 108.363027,6.01633042 108.363027,9.31042437 L108.363027,9.56365567 Z M104.5,0 C99.3694713,0 95,2.91285563 95,9.31042437 L95,9.62696349 C95,16.1504522 99.3694713,19 104.5,19 C109.629833,19 114,16.1504522 114,9.62696349 L114,9.31042437 C114,2.91285563 109.629833,0 104.5,0 Z" id="Fill-3" fill="#2A2B2D"></path>
                        <path d="M162.428293,9.81281465 L163.456937,5.31212815 C163.521183,4.93729977 163.713922,4.87551487 163.842414,4.87551487 L164.099399,4.87551487 C164.292137,4.87551487 164.420629,4.93729977 164.485581,5.31212815 L165.449273,9.81281465 L162.428293,9.81281465 Z M169.048469,2.24965675 C168.5345,0.500457666 167.956284,0 165.83475,0 L162.299801,0 C160.178972,0 159.600757,0.500457666 159.086082,2.24965675 L155.10141,16.6249428 C154.844425,17.4370709 155.037164,18 156.129348,18 L158.700605,18 C160.114726,18 160.564449,17.6251716 160.88568,16.7491991 L161.399649,14.4370709 L166.477917,14.4370709 L166.991886,16.7491991 C167.313117,17.6251716 167.635054,18 169.176961,18 L171.940957,18 C172.904649,18 173.226585,17.4995423 172.841109,16.6249428 L169.048469,2.24965675 Z" id="Fill-5" fill="#2A2B2D"></path>
                        <g id="Group-9" transform="translate(205.000000, 0.000000)">
                            <mask id="mask-2" fill="white">
                                <use xlink:href="#path-1"></use>
                            </mask>
                            <g id="Clip-8"></g>
                            <path d="M15.9409708,0.505751852 L12.7874708,0.505751852 C11.5648875,0.505751852 11.3077625,0.569788889 10.8572625,1.4641963 L8.6047625,6.77012222 L6.41672083,1.4641963 C5.96622083,0.569788889 5.5808875,0.505751852 4.22867917,0.505751852 L0.8825125,0.505751852 C-0.0177791667,0.505751852 -0.146695833,1.20875185 0.1748875,1.84771481 L5.77355417,13.3553815 L3.90709583,17.5747889 C3.5855125,18.2784926 3.71442917,18.9174556 4.55097083,18.9174556 L7.83267917,18.9174556 C8.99080417,18.9174556 9.31309583,18.7260481 9.7628875,17.7661963 L16.5841375,1.84771481 C16.9064292,1.01734444 16.7775125,0.505751852 15.9409708,0.505751852" id="Fill-7" fill="#2A2B2D" mask="url(#mask-2)"></path>
                        </g>
                        <path d="M196.817631,8.3120318 L194.466185,8.3120318 L194.466185,4.74973246 L196.817631,4.74973246 C197.898554,4.74973246 198.343517,5.62482801 198.343517,6.56252867 C198.343517,7.49954135 197.898554,8.3120318 196.817631,8.3120318 M197.326259,0 L190.398554,0 C189.381297,0 189,0.312337563 189,1.24935025 L189,16.6873567 C189,17.6876624 189.381297,18 190.398554,18 L193.194963,18 C194.148554,18 194.466185,17.6876624 194.466185,16.6873567 L194.466185,13.1250573 L197.389925,13.1250573 C201.39459,13.1250573 204,10.6242929 204,6.56252867 C204,2.50007644 201.39459,0 197.326259,0" id="Fill-10" fill="#2A2B2D"></path>
                        <path d="M126.780531,13.5 L123.528377,13.5 L123.528377,10.6249428 L126.780531,10.6249428 C127.691449,10.6249428 128.146551,11.2503432 128.146551,11.9993135 C128.146551,12.8745995 127.691449,13.5 126.780531,13.5 Z M123.528377,4.37505721 L126.065372,4.37505721 C126.91056,4.37505721 127.365662,4.87551487 127.365662,5.68764302 C127.365662,6.43729977 127.040589,7.12517162 126.065372,7.12517162 L123.528377,7.12517162 L123.528377,4.37505721 Z M130.943603,8.56270023 C132.438937,7.81235698 133.089797,6.37482838 133.089797,4.87551487 C133.089797,1.68741419 130.74856,0 127.105604,0 L119.366019,0 C118.325073,0 118,0.313043478 118,1.31258581 L118,16.6874142 C118,17.687643 118.325073,18 119.366019,18 L127.365662,18 C131.138647,18 134,16.2501144 134,12.8745995 C134,10.7498856 132.894753,9.12494279 130.943603,8.56270023 Z" id="Fill-12" fill="#2A2B2D"></path>
                        <path d="M47.8180126,8.31244517 L45.4659064,8.31244517 L45.4659064,4.75006675 L47.8180126,4.75006675 C48.8980684,4.75006675 49.3434955,5.62538617 49.3434955,6.56249285 C49.3434955,7.49959953 48.8980684,8.31244517 47.8180126,8.31244517 M48.3262741,0 L41.3984175,0 C40.3811962,0 40,0.313055418 40,1.2501621 L40,16.6873641 C40,17.6876311 40.3811962,18 41.3984175,18 L44.1952525,18 C45.148243,18 45.4659064,17.6876311 45.4659064,16.6873641 L45.4659064,13.1249857 L48.3898068,13.1249857 C52.3944613,13.1249857 55,10.6246615 55,6.56249285 C55,2.49963767 52.3944613,0 48.3262741,0" id="Fill-14" fill="#2A2B2D"></path>
                        <path d="M87.6366857,8.9375286 L92.4461779,1.68741419 C93.160784,0.626086957 93.0308556,0 92.0563927,0 L88.7417909,0 C87.3768289,0 87.0520079,0.125629291 86.4666162,1.25080092 L84.5169765,4.5006865 L82.6323009,1.25080092 C82.0476231,0.125629291 81.1374105,0 80.0330191,0 L76.9782741,0 C75.8731689,0 75.7432405,0.626086957 76.3928824,1.68741419 L81.2023747,8.9375286 L76.262954,16.5624714 C75.7432405,17.4377574 76.0030973,18 76.9782741,18 L80.1622336,18 C81.6578379,18 81.9176947,17.8750572 82.5023725,16.9372998 L84.3870481,13.3750572 L86.4023659,16.9372998 C86.9220795,17.9375286 87.1819363,18 88.6118625,18 L91.9914285,18 C93.0958198,18 93.2264621,17.3121281 92.7060347,16.5624714 L87.6366857,8.9375286 Z" id="Fill-16" fill="#2A2B2D"></path>
                        <path d="M149.447103,10.0620137 C149.121394,9.43729977 148.794969,8.75011442 147.882983,8.37459954 L152.44506,1.4375286 C152.901053,0.562242563 152.640486,0 151.662642,0 L148.665401,0 C147.296707,0 147.035423,0.124942792 146.449147,1.00022883 L143.386048,6.43729977 L142.604346,6.43729977 L142.604346,1.25011442 C142.604346,0.313043478 142.278637,0 141.300794,0 L138.367979,0 C137.390851,0 137,0.313043478 137,1.25011442 L137,16.6867277 C137,17.6251716 137.390851,18 138.367979,18 L141.300794,18 C142.278637,18 142.604346,17.6251716 142.604346,16.6867277 L142.604346,11.3121281 L142.995197,11.3121281 C143.777615,11.3121281 143.973041,11.8125858 144.29875,12.4372998 L146.579431,16.812357 C147.035423,17.7494279 147.557274,18 149.056252,18 L151.923209,18 C153.031337,18 153.226762,17.2496568 152.770769,16.3743707 L149.447103,10.0620137 Z" id="Fill-18" fill="#2A2B2D"></path>
                        <path d="M63.4285953,9.81281465 L64.4572398,5.31212815 C64.5214859,4.93729977 64.7142244,4.87551487 64.8427167,4.87551487 L65.0997014,4.87551487 C65.2924398,4.87551487 65.4209322,4.93729977 65.4851783,5.31212815 L66.4495767,9.81281465 L63.4285953,9.81281465 Z M70.0487736,2.24965675 C69.5348043,0.500457666 68.9558829,0 66.8350536,0 L63.3001029,0 C61.1785677,0 60.6003523,0.500457666 60.086383,2.24965675 L56.1017092,16.6249428 C55.8440186,17.4370709 56.037463,18 57.1296477,18 L59.7009061,18 C61.1150276,18 61.5647507,17.6251716 61.8859815,16.7491991 L62.3999507,14.4370709 L67.4775152,14.4370709 L67.9921905,16.7491991 C68.3134213,17.6251716 68.6346521,18 70.1772659,18 L72.9412627,18 C73.9049551,18 74.2261859,17.4995423 73.8414149,16.6249428 L70.0487736,2.24965675 Z" id="Fill-20" fill="#2A2B2D"></path>
                        <path d="M180.024957,6 C178.411282,6 177,6.78701645 177,9.04935527 C177,11.2630058 178.411282,12 180.024957,12 C181.588034,12 183,11.1642952 183,8.95064473 C183,6.68830591 181.588034,6 180.024957,6" id="Fill-22" fill="#2A2B2D"></path>
                        <g id="Group-26" transform="translate(0.000000, 20.000000)">
                            <mask id="mask-4" fill="white">
                                <use xlink:href="#path-3"></use>
                            </mask>
                            <g id="Clip-25"></g>
                            <path d="M13.299,3.99286667 C13.1279474,4.2062 12.8002105,4.2062 12.6291579,3.99286667 C9.93405263,0.618866667 4.41726316,-0.621133333 0.0164210526,0.471533333 C0.00273684211,0.5202 -0.00136842105,0.5702 -2.493665e-18,0.619533333 C0.00821052632,0.709533333 0.0417368421,0.797533333 0.101947368,0.872866667 C1.70847368,2.87953333 6.39668421,6.0002 12.9644211,6.0002 C19.5314737,6.0002 24.2196842,2.87953333 25.8262105,0.872866667 C25.8864211,0.797533333 25.9199474,0.709533333 25.9281579,0.619533333 C25.9302105,0.5702 25.9254211,0.5202 25.9124211,0.471533333 C21.5115789,-0.620466667 15.9941053,0.618866667 13.299,3.99286667" id="Fill-24" fill="#63A81A" mask="url(#mask-4)"></path>
                        </g>
                        <path d="M19.3734246,17.1602065 C16.5499511,17.1602065 15.3003408,17 13.0003435,17 C10.6996592,17 9.45004888,17.1602065 6.62657542,17.1602065 C3.98171586,17.1602065 1.79094776,18.4452668 0.14769995,19.9873393 C0.0741934632,20.0568757 0.0247311544,20.1434554 0,20.2354889 C4.41794594,19.118134 9.95703755,20.3861511 12.663725,23.8363849 C12.8354691,24.0545384 13.1645309,24.0545384 13.336275,23.8363849 C16.0422755,20.3861511 21.5820541,19.1188157 26,20.2354889 C25.9752688,20.1434554 25.9258065,20.0568757 25.8523001,19.9873393 C24.2090522,18.4452668 22.0182841,17.1602065 19.3734246,17.1602065" id="Fill-27" fill="#AAE23D"></path>
                        <path d="M19.8071072,15.0013584 L18.9285895,12.9026489 C18.6152768,12.3470681 18.1128724,12.2234548 17.486247,12.5318089 C16.4193277,13.0880688 15.2281875,13.3964229 14.0363571,13.3964229 C12.0288096,13.3964229 9.58234839,12.6554222 9.58234839,9.38374462 L9.58234839,9.19832465 C9.58234839,5.92664705 12.0288096,5.18564637 14.0363571,5.18564637 C15.2281875,5.18564637 16.4193277,5.49467965 17.486247,6.05026036 C18.1128724,6.35861444 18.6152768,6.23568033 18.9285895,5.67942042 L19.8071072,3.58139008 C20.1832204,2.7160969 19.9948187,2.22300204 19.3681934,1.79035544 C17.7367591,0.617387367 15.6043007,0 13.4711521,0 C8.8929225,0 4,2.46954947 4,9.26013131 L4,9.32193797 C4,14.2026262 6.40160371,16.8107313 9.45053623,17.8967625 C10.5809463,17.7330767 11.7161871,17.6495359 12.8396959,17.6542902 C14.1619582,17.6597238 15.4862908,17.7826579 16.7940607,18 C17.7422801,17.7167761 18.6332198,17.3201268 19.3681934,16.7917138 C19.9948187,16.3597464 20.1832204,15.8652932 19.8071072,15.0013584" id="Fill-29" fill="#2A2B2D"></path>
                    </g>
                </g>
            </g>
        </g>
    </g>
</svg>