<?xml version="1.0" encoding="UTF-8"?>
<svg width="61px" height="20px" viewBox="0 0 61 20" version="1.1" xmlns="http://www.w3.org/2000/svg" xmlns:xlink="http://www.w3.org/1999/xlink">
    <!-- Generator: Sketch 52.6 (67491) - http://www.bohemiancoding.com/sketch -->
    <title>Visa_Inc</title>
    <desc>Created with Sketch.</desc>
    <g id="pages" stroke="none" stroke-width="1" fill="none" fill-rule="evenodd">
        <g id="home_strahovka" transform="translate(-1244.000000, -3517.000000)" fill-rule="nonzero">
            <g id="footer" transform="translate(-70.000000, 2712.000000)">
                <g id="лого-платежных-систем" transform="translate(1129.000000, 796.000000)">
                    <g id="Visa_Inc" transform="translate(185.000000, 9.000000)">
                        <polygon id="polygon9" fill="#00579F" points="26.921814 19 22 19 25.0784551 0 30 0"></polygon>
                        <path d="M45,0.824254038 C44.0136904,0.432521215 42.4493219,0 40.5149847,0 C35.576874,0 32.0994969,2.63618943 32.0781683,6.40514645 C32.0371518,9.18587462 34.5678686,10.7303586 36.4606424,11.6575417 C38.395253,12.6049822 39.0528839,13.223378 39.0528839,14.0678894 C39.033196,15.3649056 37.4896092,15.9627703 36.0499307,15.9627703 C34.0535219,15.9627703 32.9838122,15.6545305 31.3581924,14.9329318 L30.6997411,14.623597 L30,18.969614 C31.1727979,19.5045168 33.333546,19.9791952 35.576874,20 C40.8237021,20 44.2395545,17.404599 44.2800241,13.3881741 C44.2999854,11.1842321 42.9636685,9.49548316 40.082671,8.11552149 C38.3337283,7.22967424 37.2626513,6.63235697 37.2626513,5.72597865 C37.2831595,4.90199836 38.1685686,4.05803449 40.1428285,4.05803449 C41.7684483,4.0166986 42.9628482,4.40788393 43.8676717,4.79934301 L44.3199468,5.00492746 L45,0.824254038 Z" id="path11" fill="#00579F"></path>
                        <path d="M50.7610753,12.2691487 C51.1741874,11.1776084 52.7638184,6.95302801 52.7638184,6.95302801 C52.7429708,6.99359473 53.1761075,5.84133874 53.4238102,5.13397339 L53.7743794,6.77114941 C53.7743794,6.77114941 54.7243177,11.3191889 54.9305994,12.2691487 C54.1466191,12.2691487 51.7518859,12.2691487 50.7610753,12.2691487 Z M56.9530929,0 L53.0729667,0 C51.876423,0 50.967357,0.343339508 50.4511041,1.57646027 L43,19 L48.2634755,19 C48.2634755,19 49.1300233,16.6549213 49.3162803,16.1498522 C49.8937046,16.1498522 55.0139899,16.1498522 55.7568235,16.1498522 C55.9008366,16.8169195 56.3553696,19 56.3553696,19 L61,19 L56.9530929,3.81779958e-15 Z" id="path13" fill="#00579F"></path>
                        <path d="M16.9023199,0 L12.1810936,12.9699359 L11.6651831,10.3394811 C10.792327,7.3042789 8.05486462,4.00659599 5,2.36689833 L9.32447353,19 L14.4224173,19 L22,0 L16.9023199,9.55449616e-16 Z" id="path15" fill="#00579F"></path>
                        <path d="M8.03396702,0 L0.081358681,0 L0,0.408827278 C6.20353185,2.08790866 10.3120101,6.1352701 12,11 L10.2711956,1.70082447 C9.98657537,0.408541184 9.11190197,0.0426278967 8.03396702,0 Z" id="path17" fill="#FAA61A"></path>
                    </g>
                </g>
            </g>
        </g>
    </g>
</svg>